<svg aria-hidden="true" style="position: absolute; width: 0; height: 0; overflow: hidden;" version="1.1" xmlns="http://www.w3.org/2000/svg" xmlns:xlink="http://www.w3.org/1999/xlink">
<defs>
<symbol id="icon-dots" viewBox="0 0 33 32">
<path fill="#fff" style="fill: var(--color1, #fff)" d="M1.044-0.004c0.007-0 0.015-0 0.023-0 0.589 0 1.067 0.478 1.067 1.067s-0.478 1.067-1.067 1.067c-0.589 0-1.067-0.478-1.067-1.067v0c-0-0.003-0-0.007-0-0.011 0-0.579 0.466-1.049 1.044-1.056h0.001zM7.325-0.004c0.009-0 0.019-0 0.030-0 0.589 0 1.067 0.478 1.067 1.067s-0.478 1.067-1.067 1.067c-0.589 0-1.067-0.477-1.067-1.066v-0c-0-0.004-0-0.010-0-0.015 0-0.576 0.463-1.044 1.036-1.052h0.001zM13.59-0.004c0.007-0 0.014-0 0.022-0 0.589 0 1.067 0.478 1.067 1.067s-0.478 1.067-1.067 1.067c-0.589 0-1.067-0.478-1.067-1.067v0c-0-0.003-0-0.007-0-0.010 0-0.58 0.467-1.050 1.045-1.057h0.001zM19.862-0.004c0.007-0 0.015-0 0.023-0 0.589 0 1.067 0.478 1.067 1.067s-0.478 1.067-1.067 1.067c-0.589 0-1.067-0.478-1.067-1.067v0c-0-0.003-0-0.008-0-0.012 0-0.579 0.466-1.049 1.044-1.055h0.001zM26.131-0.004c0.008-0 0.017-0 0.027-0 0.589 0 1.067 0.478 1.067 1.067s-0.478 1.067-1.067 1.067c-0.589 0-1.067-0.477-1.067-1.067v-0c-0-0.004-0-0.009-0-0.015 0-0.577 0.464-1.045 1.039-1.052h0.001zM32.407-0.004c0.006-0 0.013-0 0.020-0 0.589 0 1.067 0.478 1.067 1.067s-0.478 1.067-1.067 1.067c-0.589 0-1.067-0.478-1.067-1.067v0c-0-0.003-0-0.008-0-0.012 0-0.58 0.468-1.051 1.047-1.055h0zM1.044 5.964c0.007-0 0.015-0 0.023-0 0.589 0 1.067 0.478 1.067 1.067s-0.478 1.067-1.067 1.067c-0.589 0-1.067-0.478-1.067-1.067v0c-0-0.003-0-0.007-0-0.011 0-0.579 0.466-1.049 1.044-1.056h0.001zM7.325 5.964c0.009-0 0.019-0 0.030-0 0.589 0 1.067 0.478 1.067 1.067s-0.478 1.067-1.067 1.067c-0.589 0-1.067-0.477-1.067-1.066v-0c-0-0.004-0-0.010-0-0.015 0-0.576 0.463-1.044 1.036-1.052h0.001zM13.59 5.964c0.007-0 0.014-0 0.022-0 0.589 0 1.067 0.478 1.067 1.067s-0.478 1.067-1.067 1.067c-0.589 0-1.067-0.478-1.067-1.067v0c-0-0.003-0-0.007-0-0.010 0-0.58 0.467-1.050 1.045-1.057h0.001zM19.862 5.964c0.007-0 0.015-0 0.023-0 0.589 0 1.067 0.478 1.067 1.067s-0.478 1.067-1.067 1.067c-0.589 0-1.067-0.478-1.067-1.067v0c-0-0.003-0-0.008-0-0.012 0-0.579 0.466-1.049 1.044-1.055h0.001zM26.131 5.964c0.008-0 0.017-0 0.027-0 0.589 0 1.067 0.478 1.067 1.067s-0.478 1.067-1.067 1.067c-0.589 0-1.067-0.477-1.067-1.067v-0c-0-0.004-0-0.009-0-0.015 0-0.577 0.464-1.045 1.039-1.052h0.001zM32.407 5.964c0.006-0 0.013-0 0.020-0 0.589 0 1.067 0.478 1.067 1.067s-0.478 1.067-1.067 1.067c-0.589 0-1.067-0.478-1.067-1.067v0c-0-0.003-0-0.008-0-0.012 0-0.58 0.468-1.051 1.047-1.055h0zM1.044 11.948c0.004-0 0.009-0 0.015-0 0.585 0 1.059 0.474 1.059 1.059s-0.474 1.059-1.059 1.059c-0.585 0-1.059-0.474-1.059-1.059v0c-0-0.002-0-0.005-0-0.007 0-0.578 0.467-1.047 1.044-1.052h0zM7.325 11.948c0.006-0 0.014-0 0.022-0 0.585 0 1.059 0.474 1.059 1.059s-0.474 1.059-1.059 1.059c-0.585 0-1.059-0.474-1.059-1.059 0-0 0-0 0-0.001v0c-0-0.003-0-0.007-0-0.010 0-0.575 0.463-1.042 1.037-1.048h0.001zM13.59 11.948c0.004-0 0.009-0 0.014-0 0.585 0 1.059 0.474 1.059 1.059s-0.474 1.059-1.059 1.059c-0.585 0-1.059-0.474-1.059-1.059 0-0 0-0 0-0.001v0c0-0.002-0-0.004-0-0.006 0-0.579 0.467-1.048 1.045-1.052h0zM19.862 11.948c0.004-0 0.009-0 0.015-0 0.585 0 1.059 0.474 1.059 1.059s-0.474 1.059-1.059 1.059c-0.585 0-1.059-0.474-1.059-1.059 0-0 0-0 0-0.001v0c-0-0.002-0-0.005-0-0.007 0-0.578 0.467-1.047 1.044-1.051h0zM26.131 11.948c0.006-0 0.012-0 0.019-0 0.585 0 1.059 0.474 1.059 1.059s-0.474 1.059-1.059 1.059c-0.585 0-1.059-0.474-1.059-1.059 0-0 0-0 0-0.001v0c-0-0.003-0-0.007-0-0.010 0-0.576 0.465-1.043 1.040-1.048h0zM32.407 11.948c0.003-0 0.007-0 0.011-0 0.584 0 1.058 0.474 1.058 1.058s-0.474 1.058-1.058 1.058c-0.584 0-1.058-0.474-1.058-1.058v0c-0-0.002-0-0.005-0-0.007 0-0.579 0.468-1.049 1.047-1.051h0zM1.044 17.932c0.004-0 0.009-0 0.014-0 0.584 0 1.058 0.474 1.058 1.058s-0.474 1.058-1.058 1.058c-0.584 0-1.058-0.473-1.058-1.057v-0c-0-0.002-0-0.005-0-0.007 0-0.578 0.467-1.047 1.044-1.052h0zM7.325 17.932c0.006-0 0.014-0 0.022-0 0.585 0 1.059 0.474 1.059 1.059s-0.474 1.059-1.059 1.059c-0.585 0-1.059-0.474-1.059-1.059 0-0 0-0 0-0.001v0c-0-0.003-0-0.007-0-0.010 0-0.575 0.463-1.042 1.037-1.048h0.001zM13.59 17.932c0.004-0 0.008-0 0.013-0 0.584 0 1.058 0.474 1.058 1.058s-0.474 1.058-1.058 1.058c-0.584 0-1.058-0.474-1.058-1.058v0c0-0.002-0-0.004-0-0.006 0-0.579 0.467-1.048 1.045-1.052h0zM19.862 17.932c0.004-0 0.009-0 0.014-0 0.584 0 1.058 0.474 1.058 1.058s-0.474 1.058-1.058 1.058c-0.584 0-1.058-0.474-1.058-1.058v0c-0-0.002-0-0.005-0-0.007 0-0.578 0.467-1.047 1.044-1.051h0zM26.131 17.932c0.006-0 0.012-0 0.019-0 0.585 0 1.059 0.474 1.059 1.059s-0.474 1.059-1.059 1.059c-0.585 0-1.059-0.474-1.059-1.059 0-0 0-0 0-0.001v0c-0-0.003-0-0.007-0-0.010 0-0.576 0.465-1.043 1.040-1.048h0zM32.407 17.932c0.003-0 0.007-0 0.011-0 0.584 0 1.058 0.474 1.058 1.058s-0.474 1.058-1.058 1.058c-0.584 0-1.058-0.474-1.058-1.058v0c-0-0.002-0-0.005-0-0.007 0-0.579 0.468-1.049 1.047-1.051h0zM1.044 23.899c0.004-0 0.009-0 0.015-0 0.585 0 1.059 0.474 1.059 1.059s-0.474 1.059-1.059 1.059c-0.585 0-1.059-0.474-1.059-1.059v0c-0-0.002-0-0.005-0-0.007 0-0.578 0.467-1.047 1.044-1.052h0zM7.325 23.899c0.006-0 0.014-0 0.022-0 0.585 0 1.059 0.474 1.059 1.059s-0.474 1.059-1.059 1.059c-0.585 0-1.059-0.474-1.059-1.059 0-0 0-0 0-0.001v0c-0-0.003-0-0.007-0-0.010 0-0.575 0.463-1.042 1.037-1.048h0.001zM13.59 23.899c0.004-0 0.009-0 0.014-0 0.585 0 1.059 0.474 1.059 1.059s-0.474 1.059-1.059 1.059c-0.585 0-1.059-0.474-1.059-1.059 0-0 0-0 0-0.001v0c0-0.002-0-0.004-0-0.006 0-0.579 0.467-1.048 1.045-1.052h0zM19.862 23.899c0.004-0 0.009-0 0.015-0 0.585 0 1.059 0.474 1.059 1.059s-0.474 1.059-1.059 1.059c-0.585 0-1.059-0.474-1.059-1.059 0-0 0-0 0-0.001v0c-0-0.002-0-0.005-0-0.007 0-0.578 0.467-1.047 1.044-1.051h0zM26.131 23.899c0.006-0 0.012-0 0.019-0 0.585 0 1.059 0.474 1.059 1.059s-0.474 1.059-1.059 1.059c-0.585 0-1.059-0.474-1.059-1.059 0-0 0-0 0-0.001v0c-0-0.003-0-0.007-0-0.010 0-0.576 0.465-1.043 1.040-1.048h0zM32.407 23.899c0.003-0 0.007-0 0.011-0 0.584 0 1.058 0.474 1.058 1.058s-0.474 1.058-1.058 1.058c-0.584 0-1.058-0.474-1.058-1.058v0c-0-0.002-0-0.005-0-0.007 0-0.579 0.468-1.049 1.047-1.051h0zM1.044 29.884c0.004-0 0.009-0 0.015-0 0.585 0 1.059 0.474 1.059 1.059s-0.474 1.059-1.059 1.059c-0.585 0-1.059-0.474-1.059-1.059 0-0 0-0 0-0.001v0c0-0.002-0-0.004-0-0.007 0-0.578 0.467-1.047 1.044-1.052h0zM7.325 29.884c0.006-0 0.014-0 0.022-0 0.585 0 1.059 0.474 1.059 1.059s-0.474 1.059-1.059 1.059c-0.585 0-1.059-0.474-1.059-1.059 0-0 0-0 0-0.001v0c-0-0.003-0-0.007-0-0.010 0-0.575 0.463-1.042 1.037-1.048h0.001zM13.59 29.884c0.004-0 0.009-0 0.014-0 0.585 0 1.059 0.474 1.059 1.059s-0.474 1.059-1.059 1.059c-0.585 0-1.059-0.474-1.059-1.059 0-0 0-0 0-0.001v0c0-0.002-0-0.004-0-0.006 0-0.579 0.467-1.048 1.045-1.052h0zM19.862 29.884c0.004-0 0.009-0 0.015-0 0.585 0 1.059 0.474 1.059 1.059s-0.474 1.059-1.059 1.059c-0.585 0-1.059-0.474-1.059-1.059 0-0 0-0 0-0.001v0c-0-0.002-0-0.005-0-0.007 0-0.578 0.467-1.047 1.044-1.051h0zM26.131 29.884c0.006-0 0.012-0 0.019-0 0.585 0 1.059 0.474 1.059 1.059s-0.474 1.059-1.059 1.059c-0.585 0-1.059-0.474-1.059-1.059 0-0 0-0 0-0.001v0c-0-0.003-0-0.007-0-0.010 0-0.576 0.465-1.043 1.040-1.048h0zM32.407 29.884c0.003-0 0.007-0 0.011-0 0.584 0 1.058 0.474 1.058 1.058s-0.474 1.058-1.058 1.058c-0.584 0-1.058-0.474-1.058-1.058v0c-0-0.002-0-0.005-0-0.007 0-0.579 0.468-1.049 1.047-1.051h0z"></path>
</symbol>
<symbol id="icon-waves" viewBox="0 0 97 32">
<path fill="#fff" style="fill: var(--color1, #fff)" d="M80.502 17.106c-8.438 6.223-15.636 6.223-24.074 0-5.502-4.058-10.196-4.058-15.7 0-8.359 6.163-15.176 6.163-23.535 0-5.563-4.105-9.321-4.105-14.889 0l-2.295-3.014c6.765-4.987 12.448-5.189 19.482 0 6.63 4.889 11.525 5.47 18.943 0 7.033-5.189 13.572-4.955 20.293 0 6.899 5.089 12.313 5.288 19.482 0 7.037-5.189 11.637-5.189 18.67 0l-2.297 3.014c-5.655-4.173-8.42-4.173-14.078 0zM80.502 6.893c-8.438 6.223-15.636 6.223-24.074 0-5.502-4.061-10.196-4.061-15.7 0-8.359 6.163-15.176 6.163-23.535 0-5.563-4.105-9.321-4.105-14.889 0l-2.295-3.014c6.765-4.99 12.448-5.189 19.482 0 6.63 4.889 11.525 5.47 18.943 0 7.033-5.189 13.572-4.955 20.293 0 6.899 5.089 12.313 5.288 19.482 0 7.037-5.189 11.637-5.189 18.67 0l-2.297 3.014c-5.655-4.173-8.42-4.173-14.078 0zM19.49 24.308c6.63 4.892 11.525 5.47 18.943 0 7.033-5.189 13.572-4.955 20.293 0 6.899 5.092 12.313 5.291 19.482 0 7.037-5.189 11.637-5.189 18.67 0l-2.297 3.014c-5.655-4.167-8.422-4.167-14.078 0-8.438 6.223-15.636 6.226-24.074 0-5.502-4.058-10.196-4.058-15.7 0-8.359 6.165-15.176 6.165-23.535 0-5.563-4.105-9.321-4.105-14.889 0l-2.295-3.014c6.765-4.987 12.448-5.189 19.482 0z"></path>
</symbol>
<symbol id="icon-ellipse" viewBox="0 0 32 32">
<path fill="#ffc400" style="fill: var(--color2, #ffc400)" d="M31.851 16c0 8.795-7.13 15.926-15.926 15.926s-15.926-7.13-15.926-15.926c0-8.795 7.13-15.926 15.926-15.926s15.926 7.13 15.926 15.926z"></path>
</symbol>
<symbol id="icon-star" viewBox="0 0 32 32">
<rect x="12" y="12" width="9" height="9"  fill="#ffffff" />
<path fill="#fff" style="fill: var(--color1, #fff)" d="M11.665 0.114l-0.025 0.006c-1.503 0.424-2.605 1.806-2.605 3.445 0 0.334 0.046 0.658 0.126 0.94l6.747 24.896c0.42 1.501 1.798 2.601 3.433 2.601 1.969 0 3.565-1.596 3.565-3.565 0-0.334-0.046-0.657-0.126-0.939l-6.744-24.896c-0.416-1.507-1.796-2.614-3.435-2.614-0.333 0-0.655 0.046-0.936 0.125zM2.646 15.931l24.776-6.764c0.281-0.079 0.603-0.124 0.935-0.124 1.976 0 3.577 1.602 3.577 3.577 0 1.643-1.108 3.027-2.617 3.447l-0.025 0.006-24.776 6.764c-0.281 0.079-0.603 0.124-0.935 0.124-1.976 0-3.577-1.602-3.577-3.577 0-1.643 1.108-3.027 2.617-3.447l0.025-0.006z"></path>
</symbol>
<symbol id="icon-close" viewBox="0 0 32 32">
<path stroke-linejoin="round" stroke-linecap="round" stroke-miterlimit="4" stroke-width="2.5" d="M24 8l-16 16"></path>
<path stroke-linejoin="round" stroke-linecap="round" stroke-miterlimit="4" stroke-width="2.5" d="M8 8l16 16"></path>
</symbol>
</defs>
</svg>
